<?xml version="1.0" encoding="iso-8859-1"?>
<!-- Generator: Adobe Illustrator 19.0.0, SVG Export Plug-In . SVG Version: 6.00 Build 0)  -->
<svg version="1.1" id="Layer_1" xmlns="http://www.w3.org/2000/svg" xmlns:xlink="http://www.w3.org/1999/xlink" x="0px" y="0px"
	 viewBox="0 0 512 512" style="enable-background:new 0 0 512 512;" xml:space="preserve">
<g>
	<g>
		<path d="M369.776,341.337c-9.502-0.002-19.012-0.247-28.442-0.738v29.18v27.618c8.981,0.525,18.451,0.827,28.442,0.827
			c85.031,0,133.853-20.975,142.224-30.855v-48.748C474.074,334.059,421.807,341.337,369.776,341.337z"/>
	</g>
</g>
<g>
	<g>
		<path d="M369.776,227.559c-9.502-0.002-19.012-0.246-28.442-0.738v29.18v27.618c8.981,0.525,18.451,0.827,28.442,0.827
			c78.633,0,126.274-17.929,139.62-28.444c1.085-0.855,1.974-1.667,2.604-2.41v-48.748
			C474.074,220.281,421.807,227.559,369.776,227.559z"/>
	</g>
</g>
<g>
	<g>
		<path d="M369.776,113.778c-12.84,0-25.695-0.448-38.347-1.346c6.379,8.81,9.904,18.728,9.904,29.791v27.618
			c8.981,0.525,18.451,0.827,28.442,0.827c78.633,0,126.274-17.929,139.62-28.444c1.085-0.855,1.974-1.667,2.604-2.412V91.065
			C474.074,106.502,421.809,113.778,369.776,113.778z"/>
	</g>
</g>
<g>
	<g>
		<path d="M369.776,0.001c-78.618,0-126.285,17.929-139.641,28.444C243.491,38.96,291.156,56.89,369.776,56.89
			S496.064,38.96,509.419,28.445C496.062,17.93,448.397,0.001,369.776,0.001z"/>
	</g>
</g>
<g>
	<g>
		<path d="M255.999,441.815c-33.653,8.996-73.786,13.297-113.777,13.297c-52.03,0-104.298-7.278-142.222-22.716v48.748
			c8.368,9.882,57.19,30.855,142.222,30.855s133.853-20.973,142.224-30.855v-33.079v-15.669
			C275.669,435.969,266.131,439.106,255.999,441.815z"/>
	</g>
</g>
<g>
	<g>
		<path d="M255.999,328.038c-9.055,2.42-18.58,4.502-28.444,6.25c-9.22,1.635-18.735,2.975-28.444,4.035
			c-9.335,1.018-18.845,1.777-28.444,2.276c-9.432,0.491-18.94,0.736-28.444,0.736c-52.03,0-104.298-7.278-142.222-22.716v48.748
			c0.63,0.745,1.517,1.555,2.602,2.41c13.346,10.515,60.987,28.444,139.62,28.444c13.028,0,25.194-0.497,36.507-1.367
			c12.692-0.975,24.278-2.427,34.77-4.189c17.175-2.884,31.372-6.597,42.5-10.435c12.591-4.342,21.25-8.835,25.843-12.453
			c1.085-0.855,1.974-1.667,2.604-2.41v-33.079v-15.669C275.669,322.192,266.131,325.328,255.999,328.038z"/>
	</g>
</g>
<g>
	<g>
		<path d="M255.999,214.261c-9.055,2.42-18.58,4.502-28.444,6.25c-9.22,1.635-18.735,2.975-28.444,4.035
			c-9.335,1.018-18.845,1.777-28.444,2.276c-9.432,0.491-18.94,0.736-28.444,0.736c-52.03,0-104.298-7.278-142.222-22.716v48.748
			c0.63,0.745,1.517,1.555,2.602,2.41c13.346,10.515,60.987,28.444,139.62,28.444c9.992,0,19.462-0.298,28.444-0.827
			c2.731-0.159,5.425-0.338,8.063-0.54c7.138-0.548,13.938-1.24,20.381-2.061c5.018-0.639,9.796-1.358,14.389-2.128
			c4.923-0.827,9.624-1.714,14.055-2.661c11.029-2.357,20.506-5.035,28.444-7.775c12.591-4.343,21.25-8.835,25.843-12.453
			c1.085-0.855,1.974-1.667,2.604-2.41v-33.079v-15.669C275.669,208.415,266.131,211.551,255.999,214.261z"/>
	</g>
</g>
<g>
	<g>
		<path d="M227.555,121.999c-3.474-0.745-7.107-1.453-10.883-2.122c-5.53-0.982-11.391-1.874-17.562-2.659
			c-3.552-0.451-7.202-0.867-10.964-1.24c-5.596-0.556-11.418-1.022-17.48-1.379c-8.979-0.527-18.458-0.821-28.444-0.821
			c-78.618,0-126.285,17.929-139.641,28.444c13.356,10.515,61.021,28.444,139.641,28.444c9.986,0.002,19.465-0.292,28.444-0.817
			c2.738-0.159,5.416-0.349,8.061-0.552c7.141-0.548,13.936-1.248,20.383-2.067c5.008-0.637,9.81-1.344,14.395-2.114
			c4.925-0.827,9.616-1.718,14.05-2.666c11.023-2.353,20.524-5.029,28.461-7.767c12.589-4.343,21.25-8.841,25.848-12.459
			C274.368,136.325,256.065,128.09,227.555,121.999z"/>
	</g>
</g>
<g>
</g>
<g>
</g>
<g>
</g>
<g>
</g>
<g>
</g>
<g>
</g>
<g>
</g>
<g>
</g>
<g>
</g>
<g>
</g>
<g>
</g>
<g>
</g>
<g>
</g>
<g>
</g>
<g>
</g>
</svg>
