<svg width="32" height="32" viewBox="0 0 32 32" version="1.1" xmlns="http://www.w3.org/2000/svg" xmlns:xlink="http://www.w3.org/1999/xlink">
<title>Group</title>
<desc>Created using Figma</desc>
<g id="Canvas" transform="translate(2796 3500)">
<g id="Group">
<g id="Group">
<g id="Vector">
<use xlink:href="#path0_fill" transform="translate(-2796 -3500)" fill="#E9CB6B"/>
</g>
</g>
<g id="Group">
<g id="Vector">
<use xlink:href="#path1_fill" transform="translate(-2778.95 -3486.78)" fill="#E9CB6B"/>
</g>
</g>
</g>
</g>
<defs>
<path id="path0_fill" d="M 16.0177 32C 7.1938 32 0 24.8221 0 15.9823C 0 7.14254 7.1938 0 16.0177 0C 19.7386 0 23.3533 1.30829 26.2237 3.64199L 24.5227 5.69282C 22.1484 3.71271 19.1008 2.65193 16.0177 2.65193C 8.64673 2.65193 2.65781 8.62762 2.65781 15.9823C 2.65781 23.337 8.64673 29.3481 16.0177 29.3481C 21.1916 29.3481 25.7984 26.4133 28.031 21.8873L 17.0454 21.8873L 17.0454 19.2354L 31.8228 19.2354L 31.2558 20.968C 29.0941 27.5448 22.9989 32 16.0177 32Z"/>
<path id="path1_fill" d="M 14.9546 0L 0 0L 0 2.65193L 14.9546 2.65193L 14.9546 0Z"/>
</defs>
</svg>
